# xmcd
#
# Track frame offsets: 
#        150
#        11368
#        28735
#        43584
#        58704
#        72149
#        87439
#        101394
#        113580
#        125531
#        137818
#        151820
#        168866
#        192263
#        204612
#        216477
#        227943
#        256646
#        270894
#        286044
#
# Disc length: 3975 seconds
#
# Revision: 0
# Processed by: cddbd v1.5.2PL0 Copyright (c) Steve Scherf et al.
# Submitted via: ExactAudioCopy v1.0b4
#
DISCID=0d0f8514
DTITLE=201 Jazz Hits - CD 1
DYEAR=2013
DGENRE=Blues
TTITLE0=Joe Williams - My baby just cares for me
TTITLE1=Mark Murphy - The lady in red
TTITLE2=Helen Merrill - Troubled waters
TTITLE3=Louis Armstrong - I was doing alright
TTITLE4=Nat King Cole - Beale Street Blues
TTITLE5=Nina Simone - Blue Prelude
TTITLE6=Bing Crosby - I ain't got nobody
TTITLE7=Blossom Dearie - Give him the ohh-la-la
TTITLE8=Ella Fitzgerald - Somebody loves me
TTITLE9=Fats Waller - Us on a bus
TTITLE10=Chet Baker - That old feeling
TTITLE11=Billie Holiday - Lady sings the blues
TTITLE12=Louis Armstrong - Blues in the Night
TTITLE13=Al Hibbler - After the lights go down low
TTITLE14=Rita Reys - Taking a chance on love
TTITLE15=Dinah Washington - What a difference a day makes
TTITLE16=Sarah Vaughan - April in Paris
TTITLE17=Nat King Cole - I just can't see for lookin'
TTITLE18=Mark Murphy - Give it back to the Indians
TTITLE19=Dinah Washington - It's magic
EXTD=
EXTT0=
EXTT1=
EXTT2=
EXTT3=
EXTT4=
EXTT5=
EXTT6=
EXTT7=
EXTT8=
EXTT9=
EXTT10=
EXTT11=
EXTT12=
EXTT13=
EXTT14=
EXTT15=
EXTT16=
EXTT17=
EXTT18=
EXTT19=
PLAYORDER=
